<?xml version="1.0" encoding="utf-8"?>
<!-- Generator: Adobe Illustrator 24.0.1, SVG Export Plug-In . SVG Version: 6.00 Build 0)  -->
<svg version="1.1" id="Layer_1" xmlns="http://www.w3.org/2000/svg" xmlns:xlink="http://www.w3.org/1999/xlink" x="0px" y="0px"
	 viewBox="0 0 236 201.7" style="enable-background:new 0 0 236 201.7;" xml:space="preserve">
<style type="text/css">
	.st0{fill:none;stroke:#A2B8C5;stroke-width:0.5695;stroke-miterlimit:10;}
	.st1{fill:none;stroke:#A2B8C5;stroke-width:0.5695;stroke-miterlimit:10;stroke-dasharray:1.14,1.14;}
	.st2{fill:none;stroke:#939598;stroke-width:0.5695;stroke-miterlimit:10;}
	.st3{fill:none;stroke:#A2B8C5;stroke-width:0.5695;stroke-miterlimit:10;stroke-dasharray:1.15,1.15;}
	.st4{fill:none;stroke:#939598;stroke-width:0.5695;stroke-miterlimit:10;stroke-dasharray:1.15,1.15;}
	.st5{fill:#2D6876;}
	.st6{fill:none;stroke:#FFFFFF;stroke-width:1.7086;stroke-miterlimit:10;}
	.st7{fill:#FFFFFF;}
	.st8{fill:#DDEAE9;}
	.st9{fill:#EAF0F1;}
	.st10{fill:#1A4F5B;}
	.st11{fill:#F2F2F3;}
	.st12{fill:#A2B8C5;}
	.st13{fill:#849CAA;}
	.st14{fill:#75909F;}
	.st15{fill:#89A2B0;}
	.st16{fill:#9BC9EC;}
	.st17{fill:#5A8FC5;}
	.st18{fill:#12434E;}
	.st19{fill:none;stroke:#162530;stroke-width:0.5695;stroke-miterlimit:10;}
	.st20{fill:#162530;}
	.st21{fill:none;stroke:#000000;stroke-width:0.5695;stroke-miterlimit:10;}
</style>
<path class="st0" d="M134,2h-0.6"/>
<path class="st1" d="M132.3,2H3"/>
<path class="st0" d="M2.4,2H1.8"/>
<path class="st2" d="M134,177.5h-0.6"/>
<path class="st1" d="M132.3,177.5H3"/>
<path class="st2" d="M2.4,177.5H1.8"/>
<path class="st2" d="M33.7,100.5v0.6"/>
<path class="st3" d="M33.7,102.2v96.5"/>
<path class="st2" d="M33.7,199.3v0.6"/>
<path class="st2" d="M234.3,100.5v0.6"/>
<path class="st4" d="M234.3,102.2v96.5"/>
<path class="st2" d="M234.3,199.3v0.6"/>
<path class="st5" d="M234.3,100.5C234.3,46.1,189.4,2,134,2S33.7,46.2,33.7,100.5c0,21.7,7.2,41.8,19.3,58.1h57.4v18.9h47.2v-18.9
	h57.5C227.1,142.3,234.3,122.2,234.3,100.5z"/>
<path class="st6" d="M234.3,100.5C234.3,46.1,189.4,2,134,2S33.7,46.2,33.7,100.5c0,21.7,7.2,41.8,19.3,58.1h57.4v18.9h47.2v-18.9
	h57.5C227.1,142.3,234.3,122.2,234.3,100.5z"/>
<path class="st7" d="M53.4,106.6l8,44.8h51.5h7.2v16.9h13.8h13.8v-16.9h7.3h51.5l8-44.8l9.3-5.1c0-0.7,0-1.4,0-2.1
	c0-48.8-40.3-88.3-89.9-88.3S44.1,50.6,44.1,99.4c0,0.7,0,1.4,0,2.1L53.4,106.6z"/>
<path class="st8" d="M223.5,91.8c-0.1-0.7-0.1-1.3-0.2-2c-0.1-0.8-0.7-1.3-1.5-1.3h-84.7c-0.9,0-1.5-0.7-1.5-1.5V12.7
	c0-0.8-0.7-1.5-1.5-1.5c-0.2,0-0.5,0-0.7,0c-0.9,0-1.5,0.7-1.5,1.5v74.2c0,0.8-0.7,1.5-1.5,1.5h-84c-0.8,0-1.5,0.6-1.5,1.3
	c-0.1,0.7-0.2,1.3-0.2,2c-0.1,0.9,0.6,1.7,1.5,1.7h84.1c0.9,0,1.5,0.7,1.5,1.5v71.9c0,0.8,0.7,1.5,1.5,1.5h0.7
	c0.9,0,1.5-0.7,1.5-1.5V94.9c0-0.8,0.7-1.5,1.5-1.5h84.9C222.9,93.4,223.6,92.7,223.5,91.8z"/>
<path class="st9" d="M143.5,84.9h79.2c-6.8-40.3-41.5-71.5-83.9-73.7v69C138.7,82.8,140.9,84.9,143.5,84.9z"/>
<path class="st9" d="M128.5,11.3c-42.1,2.5-76.4,33.5-83.2,73.6h78.4c2.6,0,4.7-2.1,4.7-4.6v-69H128.5z"/>
<path class="st9" d="M223.8,97.2h-80.4c-2.6,0-4.7,2.1-4.7,4.6v66.6h9.1v-16.9h58.8l8-44.8l9.3-5.1c0-0.7,0-1.4,0-2.1
	C223.9,98.7,223.8,97.9,223.8,97.2z"/>
<path class="st9" d="M128.5,168.4v-66.6c0-2.6-2.1-4.6-4.7-4.6H44.1c0,0.7-0.1,1.5-0.1,2.2s0,1.4,0,2.1l9.3,5.1l8,44.8h58.8v16.9
	L128.5,168.4L128.5,168.4z"/>
<path class="st10" d="M96.7,130.7H80.5v17.7h16.2V130.7z"/>
<path class="st10" d="M101.5,145.3H66.7c-1.9,0-3.4,1.5-3.4,3.4v2.8h38.2V145.3z"/>
<path class="st11" d="M101.5,149.9H63.3v1.6h38.2V149.9z"/>
<path class="st10" d="M109.6,145.3H88.1v6.2H113v-2.8C113,146.9,111.5,145.3,109.6,145.3z"/>
<path class="st11" d="M113,149.9H88.1v1.6H113V149.9z"/>
<path class="st12" d="M111.8,121.5H65.4c0,0,0.8-23.2,2.5-38.4c0.1-0.5,0.1-1,0.1-1.5c0.3-3.9,0.1-6.8,0.4-7.7
	c1-3.7,4.3-5.3,7.6-6.2c0.8-0.2,1.6-0.4,2.3-0.5c3.4-0.6,6.8-1,10.2-1c3.4,0,6.8,0.3,10.2,1c0.7,0.2,1.5,0.3,2.3,0.5
	c3.3,0.8,6.7,2.4,7.6,6.2c0.3,1,0,4.5,0.5,9.2C111,98.3,111.8,121.5,111.8,121.5z"/>
<path class="st13" d="M74.9,121.5h-9.5c0,0,0.8-23.2,2.5-38.4c0.1-0.5,0.1-1,0.1-1.5c0,0-0.7,7.7,3.1,13.8
	C74.8,101.3,75.2,114.2,74.9,121.5z"/>
<path class="st13" d="M102.4,121.5h9.5c0,0-0.8-23.2-2.5-38.4c-0.1-0.5-0.1-1-0.1-1.5c0,0,0.7,7.7-3.1,13.8
	C102.5,101.3,102,114.2,102.4,121.5z"/>
<path class="st14" d="M113.9,123.2c-0.2,2.6-2.4,4.6-5.1,4.6H68.6c-2.7,0-4.9-2-5.1-4.6c-0.1-0.5-0.1-1.1-0.1-1.7
	c-0.1-1.1-0.1-2.3,0-3.5c0,0-0.5-1.4,8.5-2.2c3.7-0.3,9.1-0.6,16.8-0.6c7.1,0,12.1,0.2,15.8,0.5c10,0.8,9.5,2.3,9.5,2.3
	C114,120,114,121.7,113.9,123.2z"/>
<path class="st5" d="M113.9,137.3c-0.2,2.6-2.4,4.6-5.1,4.6H68.6c-2.7,0-4.9-2-5.1-4.6c-0.1-0.5-0.1-1.1-0.1-1.7
	c-0.1-1.1-0.1-2.3,0-3.5c0,0-0.5-1.4,8.5-2.2c3.7-0.3,9.1-0.6,16.8-0.6c7.1,0,12.1,0.2,15.8,0.5c10,0.8,9.5,2.3,9.5,2.3
	C114,134,114,135.8,113.9,137.3z"/>
<path class="st15" d="M64.7,115.9c1.3,4.3,7,2.9,10.3,2c2.8-0.7,5.6-1.8,8.5-1.6c2.6,0.2,4.7,2.1,7.2,2.2c2.7,0.1,5.1-1.3,8-0.9
	c2.9,0.4,5.6,2.2,8.5,2.3s5.1-1.9,6.2-4.4c-0.8-0.5-3-1.2-9-1.7c-3.6-0.3-8.8-0.5-15.8-0.5c-7.7,0-13.1,0.2-16.8,0.6
	c-4.2,0.4-6.3,0.9-7.3,1.3C64.5,115.5,64.7,115.7,64.7,115.9z"/>
<path class="st16" d="M66.6,121.1v0.2V121.1C66.5,121.1,66.5,121.1,66.6,121.1z"/>
<path class="st17" d="M66.6,121.1v0.2V121.1C66.5,121.1,66.5,121.1,66.6,121.1z"/>
<path class="st10" d="M107,125.5c-5.6,0-13.9-1.3-18.4-1.3c-4.6,0-12.8,1.3-18.4,1.3c-5.5,0-6.8-3.7-6.9-3.9c0,0.6,0.1,1.1,0.1,1.7
	c0.2,2.6,2.4,4.6,5.1,4.6h20h20c2.7,0,4.9-2,5.1-4.6c0.1-0.5,0.1-1.1,0.1-1.7C113.9,121.8,112.5,125.5,107,125.5z"/>
<path class="st13" d="M101.2,67.8c0,0-1.4,0.5-1.9,3.4s0.6,10.5-10.6,10.5c-11.2,0-10.1-7.6-10.7-10.5c-0.5-2.9-1.9-3.4-1.9-3.4
	c0.8-0.2,1.6-0.4,2.3-0.5c3.4-0.6,6.8-1,10.2-1s6.8,0.3,10.2,1C99.6,67.5,100.4,67.6,101.2,67.8z"/>
<path class="st10" d="M65,123.7h-3.5c-0.9,0-1.5-0.7-1.5-1.5V102c0-1.8,1.5-3.2,3.3-3.2s3.3,1.5,3.3,3.2v20.2
	C66.6,123.1,65.9,123.7,65,123.7z"/>
<path class="st10" d="M115.7,123.7h-3.5c-0.9,0-1.5-0.7-1.5-1.5V102c0-1.8,1.5-3.2,3.3-3.2s3.3,1.5,3.3,3.2v20.2
	C117.3,123.1,116.6,123.7,115.7,123.7z"/>
<path class="st5" d="M65,123.8h-3.5c-0.9,0-1.5-0.7-1.5-1.5v-16.2c0-1.8,1.5-3.2,3.3-3.2s3.3,1.5,3.3,3.2v16.2
	C66.6,123.1,65.9,123.8,65,123.8z"/>
<path class="st5" d="M115.7,123.8h-3.5c-0.9,0-1.5-0.7-1.5-1.5v-16.2c0-1.8,1.5-3.2,3.3-3.2s3.3,1.5,3.3,3.2v16.2
	C117.3,123.1,116.6,123.8,115.7,123.8z"/>
<path class="st10" d="M187.4,130.7h-16.2v17.7h16.2V130.7z"/>
<path class="st10" d="M192.2,145.3h-34.8c-1.9,0-3.4,1.5-3.4,3.4v2.8h38.2V145.3z"/>
<path class="st11" d="M192.2,149.9H154v1.6h38.2V149.9z"/>
<path class="st10" d="M200.3,145.3h-21.5v6.2h24.9v-2.8C203.7,146.9,202.2,145.3,200.3,145.3z"/>
<path class="st11" d="M203.7,149.9h-24.9v1.6h24.9V149.9z"/>
<path class="st12" d="M202.5,121.5h-46.4c0,0,0.8-23.2,2.5-38.4c0.1-0.5,0.1-1,0.1-1.5c0.3-3.9,0.1-6.8,0.4-7.7
	c1-3.7,4.3-5.3,7.6-6.2c0.8-0.2,1.6-0.4,2.3-0.5c3.4-0.6,6.8-1,10.2-1s6.8,0.3,10.2,1c0.7,0.2,1.5,0.3,2.3,0.5
	c3.3,0.8,6.7,2.4,7.6,6.2c0.3,1,0,4.5,0.5,9.2C201.7,98.3,202.5,121.5,202.5,121.5z"/>
<path class="st13" d="M165.6,121.5h-9.5c0,0,0.8-23.2,2.5-38.4c0.1-0.5,0.1-1,0.1-1.5c0,0-0.7,7.7,3.1,13.8
	C165.5,101.3,166,114.2,165.6,121.5z"/>
<path class="st13" d="M193.1,121.5h9.5c0,0-0.8-23.2-2.5-38.4c-0.1-0.5-0.1-1-0.1-1.5c0,0,0.7,7.7-3.1,13.8
	C193.2,101.3,192.7,114.2,193.1,121.5z"/>
<path class="st14" d="M204.6,123.2c-0.2,2.6-2.4,4.6-5.1,4.6h-40.2c-2.7,0-4.9-2-5.1-4.6c-0.1-0.5-0.1-1.1-0.1-1.7
	c-0.1-1.1-0.1-2.3,0-3.5c0,0-0.5-1.4,8.5-2.2c3.7-0.3,9.1-0.6,16.8-0.6c7.1,0,12.1,0.2,15.8,0.5c10,0.8,9.5,2.3,9.5,2.3
	C204.8,120,204.7,121.7,204.6,123.2z"/>
<path class="st5" d="M204.6,137.3c-0.2,2.6-2.4,4.6-5.1,4.6h-40.2c-2.7,0-4.9-2-5.1-4.6c-0.1-0.5-0.1-1.1-0.1-1.7
	c-0.1-1.1-0.1-2.3,0-3.5c0,0-0.5-1.4,8.5-2.2c3.7-0.3,9.1-0.6,16.8-0.6c7.1,0,12.1,0.2,15.8,0.5c10,0.8,9.5,2.3,9.5,2.3
	C204.8,134,204.7,135.8,204.6,137.3z"/>
<path class="st15" d="M155.4,115.9c1.3,4.3,7,2.9,10.3,2c2.8-0.7,5.6-1.8,8.5-1.6c2.6,0.2,4.7,2.1,7.2,2.2c2.7,0.1,5.1-1.3,8-0.9
	c2.9,0.4,5.6,2.2,8.5,2.3s5.1-1.9,6.2-4.4c-0.8-0.5-3-1.2-9-1.7c-3.6-0.3-8.8-0.5-15.8-0.5c-7.7,0-13.1,0.2-16.8,0.6
	c-4.2,0.4-6.3,0.9-7.3,1.3C155.3,115.5,155.4,115.7,155.4,115.9z"/>
<path class="st16" d="M157.3,121.1v0.2l-0.1-0.2C157.3,121.1,157.3,121.1,157.3,121.1z"/>
<path class="st17" d="M157.3,121.1v0.2l-0.1-0.2C157.3,121.1,157.3,121.1,157.3,121.1z"/>
<path class="st10" d="M197.8,125.5c-5.6,0-13.9-1.3-18.4-1.3c-4.6,0-12.8,1.3-18.4,1.3c-5.5,0-6.8-3.7-6.9-3.9
	c0,0.6,0.1,1.1,0.1,1.7c0.2,2.6,2.4,4.6,5.1,4.6h20h20c2.7,0,4.9-2,5.1-4.6c0.1-0.5,0.1-1.1,0.1-1.7
	C204.6,121.8,203.2,125.5,197.8,125.5z"/>
<path class="st13" d="M191.9,67.8c0,0-1.4,0.5-1.9,3.4s0.6,10.5-10.7,10.5c-11.2,0-10.1-7.6-10.7-10.5c-0.5-2.9-1.9-3.4-1.9-3.4
	c0.8-0.2,1.6-0.4,2.3-0.5c3.4-0.6,6.8-1,10.2-1s6.8,0.3,10.2,1C190.3,67.5,191.1,67.6,191.9,67.8z"/>
<path class="st10" d="M155.8,123.7h-3.5c-0.9,0-1.5-0.7-1.5-1.5V102c0-1.8,1.5-3.2,3.3-3.2c1.8,0,3.3,1.5,3.3,3.2v20.2
	C157.3,123.1,156.6,123.7,155.8,123.7z"/>
<path class="st10" d="M206.5,123.7H203c-0.9,0-1.5-0.7-1.5-1.5V102c0-1.8,1.5-3.2,3.3-3.2c1.8,0,3.3,1.5,3.3,3.2v20.2
	C208,123.1,207.3,123.7,206.5,123.7z"/>
<path class="st5" d="M155.8,123.8h-3.5c-0.9,0-1.5-0.7-1.5-1.5v-16.2c0-1.8,1.5-3.2,3.3-3.2c1.8,0,3.3,1.5,3.3,3.2v16.2
	C157.3,123.1,156.6,123.8,155.8,123.8z"/>
<path class="st5" d="M206.5,123.8H203c-0.9,0-1.5-0.7-1.5-1.5v-16.2c0-1.8,1.5-3.2,3.3-3.2c1.8,0,3.3,1.5,3.3,3.2v16.2
	C208,123.1,207.3,123.8,206.5,123.8z"/>
<path class="st18" d="M117.3,96c0-2.5-13.5-19.6-13.5-19.6v-0.1c0,0-6.5-1.6-7.8-1.8c-1.3-0.2-4.9-2.5-5.1-3.2s1.5-4.6,2.2-7
	c0.7-2.4-1.1-4.3-1.3-5.6c-0.1-1.3-1.1-1.8-4.2-2.5c-3-0.7-5.3,1.3-6.4,2.7c-1.1,1.4-0.5,5-0.5,5s0.6,3.9,0.7,5.3
	c0.1,1.4,1.1,2.5,1.1,2.5l-0.2,1.9l-1.5,1.2l-11.2,3.1V78L60,98.2l1.2,4.7c0.6,0.1,1.2,0.2,1.8,0.4c0.6,0.2,0.6,0.3,1.1,0.4
	c0.3,0,1.2-0.1,1.3-0.3c0.7-1.1,1.9-1.6,3.2-1.3l-0.7-3.2l3.5-4.7l-0.2,11.6l2.6,2.6L71,118.9v0.6l-4.2,5l-0.4-0.1
	c0,0-5.2,5.1-5.9,4.1c-0.6-1-1.9-0.3-2.9,0.7c-1,1.1,3,2.5,4.2,3.5s5,1.5,5.9,1.5s2.7,0.8,2.7,0.8c0.9-1,1.1-6.4,1.1-6.4l2.3-3.8
	c2,0.2,3.4-0.5,3.4-0.5l1.7,15.4h0.4c0,0,0.1,0.4,0.1,0.5c0.1,0.1-0.4,1.5-0.5,1.6s0.2,1.3,0.2,1.3s-0.4,3.4-0.5,4.5s-0.1,3.1,0,3.2
	c0.1,0.1,2.8,0.8,3.2,0.8c0.3,0.1,5.5,0.1,5.7-0.5c0.5-1.3-1.8-6.5-2.3-7.3c-0.6-0.7-1.6-5.2-1.6-5.2l5.9-1.2l-1-8.9l2.1-15.1
	c2.4,2.3,11.2-0.4,11.8-0.6c0.7-0.1,0.6-8.2-0.4-9.5c-0.2-0.3-0.5-1.5-0.7-3C107.1,99.4,117.3,97.7,117.3,96z"/>
<path class="st18" d="M65.8,101.1c0.1,0.1,1.6,2.1,1.9,2.3c0.2,0.2,1,2.5,1,2.5l-0.9-0.2c0,0,0.4,2.5,0.3,2.6
	c-0.1,0-0.4,0.3-0.7,0.2c-0.3-0.1-1.1-0.3-1.1-0.3s-0.5,0.3-0.6,0.2s-0.4-0.4-0.5-0.3c-0.1,0-0.6-0.2-0.6-0.2s-0.7-0.7-0.9-0.9
	c-0.1-0.2-1.1-3.1-1.1-3.4s-0.1-0.7,0-0.9s-0.3-0.8-0.3-0.8L65.8,101.1z"/>
<path class="st7" d="M78.5,98.7c0,0,3-20.4,3-20.5s0.8-4.7,0.8-4.7l0.1-1.2c0,0,2.5,3.8,3.4,4.4c0.8,0.6,5.8-2.9,5.6-4.9
	c0,0-2.6,23.3-0.3,26.8c0,0-6.1-4-8.1-3.1C81,96.4,78.5,98.7,78.5,98.7z"/>
<path class="st18" d="M85.7,76.7l-2.3,3.5c0,0,2.1-1.8,2-1.2c-0.1,0.6-1,2-1.2,3.1s-2.7,15.2-2.7,15.2h4.6c0,0,1.5-13.6,0.9-15.4
	c-0.6-1.7-0.1-2.6,0.6-3.1c0.7-0.4,1.8,1.3,1.8,1.3l-2.7-3.4H85.7z"/>
<path class="st19" d="M1.8,2.3v174.9"/>
<path class="st20" d="M3.7,2H0v0.6h3.7V2z"/>
<path class="st20" d="M3.7,176.9H0v0.6h3.7V176.9z"/>
<path class="st21" d="M34,199.9h200.1"/>
<path d="M34.2,198.1h-0.6v3.6h0.6V198.1z"/>
<path d="M234.3,198.1h-0.6v3.6h0.6V198.1z"/>
</svg>
