<svg xmlns="http://www.w3.org/2000/svg" width="16" height="10" fill="none" viewBox="0 0 16 10"><path fill="#212121" d="M11.0732 1.30682L14.9497 4.45946C15.2285 4.68625 15.2826 5.11176 15.0704 5.40986C15.0358 5.45852 14.9952 5.50195 14.9497 5.53898L11.0732 8.69161C9.25727 10.1684 6.74271 10.1684 4.92682 8.69161L1.05032 5.53898C0.771457 5.31218 0.71738 4.88667 0.929539 4.58857C0.964171 4.53991 1.0048 4.49648 1.05032 4.45946L4.92682 1.30682C6.74271 -0.169983 9.25727 -0.169983 11.0732 1.30682ZM5.69511 2.38634L2.81415 4.72934C2.67472 4.84273 2.64768 5.05549 2.75376 5.20454C2.77107 5.22887 2.79139 5.25059 2.81415 5.2691L5.69511 7.6121C7.05703 8.7197 8.94295 8.7197 10.3049 7.6121L13.1858 5.2691C13.3253 5.1557 13.3523 4.94295 13.2462 4.7939C13.2289 4.76956 13.2086 4.74785 13.1858 4.72934L10.3049 2.38634C8.94295 1.27873 7.05703 1.27873 5.69511 2.38634ZM7.99999 3.6428C8.70078 3.6428 9.26888 4.25009 9.26888 4.99922C9.26888 5.74835 8.70078 6.35564 7.99999 6.35564C7.2992 6.35564 6.7311 5.74835 6.7311 4.99922C6.7311 4.25009 7.2992 3.6428 7.99999 3.6428Z"/></svg>