<svg xmlns="http://www.w3.org/2000/svg" width="16" height="16" fill="none" viewBox="0 0 16 16"><path fill="#212121" d="M14.5995 0.799805C14.9312 0.799805 15.2 1.0685 15.2 1.39994C15.2 1.56422 15.1327 1.72132 15.0136 1.83459L9.97988 6.62378C9.86082 6.73706 9.79343 6.89416 9.79343 7.05843V14.5997C9.79343 14.9311 9.52455 15.1998 9.19288 15.1998C9.07432 15.1998 8.95841 15.1647 8.85976 15.099L6.45757 13.4986C6.2905 13.3873 6.19015 13.2 6.19015 12.9993V7.05787C6.19015 6.89392 6.12303 6.73711 6.00439 6.62388L0.985809 1.83393C0.745957 1.60501 0.737226 1.22512 0.966307 0.985437C1.07962 0.866877 1.23654 0.799805 1.4006 0.799805H14.5995ZM12.8724 1.99948H3.12328C3.07352 1.99948 3.03319 2.03978 3.03319 2.0895C3.03319 2.11409 3.04326 2.13761 3.06105 2.1546L6.83396 5.75589C7.16022 6.06729 7.35661 6.48853 7.38707 6.93542L7.39124 7.05787V12.5974C7.39124 12.6476 7.41632 12.6944 7.45807 12.7223L8.35889 13.3227C8.42787 13.3687 8.52109 13.3501 8.5671 13.2811C8.58355 13.2565 8.59233 13.2275 8.59233 13.1979V7.05843C8.59233 6.60667 8.76221 6.17301 9.06564 5.84212L9.15168 5.75449L12.9345 2.15469C12.9706 2.12041 12.972 2.06342 12.9376 2.02742C12.9206 2.00958 12.8971 1.99948 12.8724 1.99948Z"/></svg>