<svg width="47" height="53" viewBox="0 0 47 53" fill="none" xmlns="http://www.w3.org/2000/svg">
<path d="M38.2011 6.46333C37.9948 6.46333 37.7885 6.411 37.6079 6.30633C32.6565 3.71576 28.3756 2.61673 23.2437 2.61673C18.1375 2.61673 13.2893 3.8466 8.87943 6.30633C8.2605 6.6465 7.48684 6.411 7.1258 5.78298C6.79055 5.15497 7.02265 4.34378 7.64157 4.0036C12.4383 1.3607 17.6991 0 23.2437 0C28.7367 0 33.5333 1.22986 38.7942 3.97744C39.4389 4.31761 39.671 5.10263 39.3358 5.73065C39.1037 6.20166 38.6653 6.46333 38.2011 6.46333ZM1.29758 20.2012C1.03969 20.2012 0.781805 20.1227 0.549707 19.9657C-0.043431 19.547 -0.172374 18.7358 0.240243 18.134C2.79332 14.4705 6.04268 11.5921 9.91097 9.57725C18.0086 5.33814 28.3756 5.31197 36.499 9.55108C40.3673 11.566 43.6167 14.4182 46.1698 18.0555C46.5824 18.6311 46.4534 19.4685 45.8603 19.8872C45.2672 20.3059 44.4677 20.175 44.0551 19.5732C41.7341 16.2761 38.7942 13.6855 35.3128 11.88C27.9114 8.03337 18.447 8.03337 11.0715 11.9061C7.56421 13.7379 4.62431 16.3546 2.30333 19.6517C2.09702 20.018 1.71019 20.2012 1.29758 20.2012ZM17.4155 51.7852C17.0802 51.7852 16.745 51.6543 16.5129 51.3927C14.2692 49.1161 13.0572 47.6507 11.3293 44.4845C9.54993 41.2659 8.62154 37.3408 8.62154 33.1278C8.62154 25.3561 15.1718 19.0237 23.2179 19.0237C31.2639 19.0237 37.8142 25.3561 37.8142 33.1278C37.8142 33.8605 37.2469 34.4362 36.5248 34.4362C35.8027 34.4362 35.2354 33.8605 35.2354 33.1278C35.2354 26.7954 29.8456 21.6404 23.2179 21.6404C16.5902 21.6404 11.2004 26.7954 11.2004 33.1278C11.2004 36.8959 12.0256 40.3762 13.5987 43.2023C15.2492 46.2115 16.3839 47.4937 18.3696 49.5348C18.8596 50.0581 18.8596 50.8693 18.3696 51.3927C18.086 51.6543 17.7507 51.7852 17.4155 51.7852ZM35.9059 46.9442C32.837 46.9442 30.1292 46.1592 27.9114 44.6153C24.0689 41.9724 21.7737 37.681 21.7737 33.1278C21.7737 32.3952 22.3411 31.8195 23.0632 31.8195C23.7852 31.8195 24.3526 32.3952 24.3526 33.1278C24.3526 36.8174 26.2094 40.2977 29.3556 42.4434C31.1866 43.6995 33.327 44.3013 35.9059 44.3013C36.5248 44.3013 37.5564 44.2228 38.5879 44.0396C39.2842 43.9088 39.9547 44.3798 40.0836 45.1125C40.2126 45.819 39.7484 46.4994 39.0263 46.6302C37.5564 46.918 36.2669 46.9442 35.9059 46.9442ZM30.7224 52.3347C30.6192 52.3347 30.4903 52.3085 30.3871 52.2823C26.2867 51.131 23.6047 49.5871 20.7938 46.7872C17.1834 43.1499 15.1976 38.309 15.1976 33.1278C15.1976 28.8887 18.7565 25.4347 23.1405 25.4347C27.5246 25.4347 31.0834 28.8887 31.0834 33.1278C31.0834 35.9278 33.4818 38.2043 36.4474 38.2043C39.4131 38.2043 41.8115 35.9278 41.8115 33.1278C41.8115 23.2628 33.4302 15.2556 23.1147 15.2556C15.7908 15.2556 9.08574 19.39 6.06847 25.801C5.06271 27.9205 4.54694 30.4064 4.54694 33.1278C4.54694 35.1689 4.72746 38.3875 6.27478 42.5743C6.53266 43.2546 6.19741 44.0135 5.52691 44.249C4.8564 44.5106 4.10854 44.1443 3.87644 43.4901C2.6128 40.0622 1.99387 36.6604 1.99387 33.1278C1.99387 29.9878 2.58701 27.1355 3.74749 24.6496C7.17738 17.3489 14.785 12.6127 23.1147 12.6127C34.8486 12.6127 44.3903 21.7974 44.3903 33.1017C44.3903 37.3408 40.8315 40.7949 36.4474 40.7949C32.0634 40.7949 28.5046 37.3408 28.5046 33.1017C28.5046 30.3018 26.1062 28.0252 23.1405 28.0252C20.1748 28.0252 17.7765 30.3018 17.7765 33.1017C17.7765 37.5763 19.4785 41.7631 22.599 44.9032C25.0489 47.3629 27.3956 48.7236 31.0318 49.7441C31.7281 49.9273 32.115 50.66 31.9344 51.3403C31.8055 51.9422 31.2639 52.3347 30.7224 52.3347Z" fill="#6BB2A0"/>
</svg>
