<svg xmlns="http://www.w3.org/2000/svg" width="16" height="16" fill="none" viewBox="0 0 16 16"><path fill="#2D6876" d="M12.3216 7.6028C12.6625 7.6028 12.939 7.88628 12.939 8.23597V13.9345C12.939 14.602 12.4352 15.149 11.7963 15.1973L11.7042 15.2008H4.29544C3.61348 15.2008 3.06065 14.6338 3.06065 13.9345V8.23597C3.06065 7.88628 3.33707 7.6028 3.67804 7.6028C4.01902 7.6028 4.29544 7.88628 4.29544 8.23597V13.9345H11.7042V8.23597C11.7042 7.88628 11.9806 7.6028 12.3216 7.6028ZM7.99399 0.801461C8.19508 0.791824 8.39648 0.884815 8.52053 1.06641C8.52504 1.07301 8.52943 1.07966 8.53369 1.08635L14.9412 6.50883C15.2274 6.75105 15.284 7.17829 15.071 7.49002C15.0619 7.50341 15.0522 7.51643 15.0421 7.52904C14.8285 7.79448 14.4456 7.83213 14.1868 7.61313L7.99924 2.37818L1.81283 7.61313C1.80053 7.62354 1.78784 7.63344 1.77479 7.64282C1.49996 7.84027 1.1211 7.77186 0.928567 7.49002C0.715619 7.17829 0.772175 6.75105 1.05845 6.50883L7.46643 1.08652L7.47907 1.06641C7.48822 1.05302 7.49788 1.04 7.50802 1.02739C7.63207 0.873196 7.81328 0.795867 7.99399 0.801461Z"/></svg>