<svg xmlns="http://www.w3.org/2000/svg" width="16" height="16" fill="none" viewBox="0 0 16 16"><path fill="#2D6876" d="M8.986 0.800781C10.0293 0.800781 10.8751 1.60667 10.8751 2.60078V5.06138C10.8426 5.34091 10.6117 5.56399 10.3196 5.59666L10.2454 5.60078C9.92248 5.60078 9.65632 5.36916 9.61994 5.07075L9.61571 5.00078L9.61873 5.06021L9.61619 5.0607L9.61571 2.60078C9.61571 2.29308 9.37261 2.03948 9.05944 2.00482L8.986 2.00078H2.68893C2.36599 2.00078 2.09983 2.23241 2.06346 2.53081L2.05922 2.60078V13.4008C2.05922 13.7085 2.30231 13.9621 2.61549 13.9967L2.68893 14.0008H8.986C9.30894 14.0008 9.5751 13.7692 9.61147 13.4708L9.61571 13.4008V10.9396C9.64828 10.6606 9.8792 10.4376 10.1712 10.4049L10.2454 10.4008C10.5684 10.4008 10.8345 10.6324 10.8709 10.9308L10.8751 11.0008L10.8721 10.9414C10.8732 10.9412 10.8742 10.9409 10.8753 10.9407L10.8751 13.4008C10.8751 14.3949 10.0293 15.2008 8.986 15.2008H2.68893C1.64559 15.2008 0.799805 14.3949 0.799805 13.4008V2.60078C0.799805 1.60667 1.64559 0.800781 2.68893 0.800781H8.986ZM12.7801 5.43159L15.0064 7.55291C15.1012 7.64319 15.1594 7.75507 15.1811 7.87192C15.1935 7.9182 15.1998 7.96633 15.1998 8.01586C15.1998 8.16084 15.1458 8.29382 15.056 8.39754L15.0082 8.44692L12.7801 10.57C12.5342 10.8043 12.1354 10.8043 11.8895 10.57C11.6436 10.3357 11.6436 9.95576 11.8895 9.72144L13.0506 8.61526L7.01361 8.61586C6.66583 8.61586 6.3839 8.34723 6.3839 8.01586C6.3839 7.68449 6.66583 7.41586 7.01361 7.41586L13.0815 7.41526L11.8895 6.28012C11.6436 6.04581 11.6436 5.66591 11.8895 5.43159C12.1354 5.19728 12.5342 5.19728 12.7801 5.43159Z"/></svg>