<svg xmlns="http://www.w3.org/2000/svg" width="91" height="32" fill="none" viewBox="0 0 91 32"><mask id="mask0" width="24" height="32" x="0" y="0" maskUnits="userSpaceOnUse" style="mask-type:alpha"><rect width="24" height="32" fill="#C4C4C4" rx="12"/></mask><g mask="url(#mask0)"><rect width="6" height="32" fill="#2D6876"/><rect width="6" height="32" x="6" fill="#6BB2A0"/><rect width="6" height="32" x="12" fill="#CEDFCC"/><rect width="6" height="32" x="18" fill="#E3EBE0"/></g><path fill="#FFF" d="M29.7743 23V9.5H37.5079V10.1557H30.4686V16.25H36.5243V16.9057H30.4686V23H29.7743Z"/><path fill="#FFF" d="M47.1399 23H39.8692V9.5H40.5634V22.3443H47.1399V23Z"/><path fill="#FFF" d="M51.0853 23H50.391V17.195L45.9939 9.5H46.8039L50.7382 16.4236L54.6725 9.5H55.4825L51.0853 17.195V23Z"/><path fill="#FFF" d="M57.5917 23V9.5H65.4795V10.1557H58.286V15.7679H64.3224V16.4236H58.286V22.3443H65.4795V23H57.5917Z"/><path fill="#FFF" d="M66.7091 10.1557V9.5H76.352V10.1557H71.897V23H71.2027V10.1557H66.7091Z"/><path fill="#FFF" d="M78.3841 23V9.5H79.0784V23H78.3841Z"/><path fill="#FFF" d="M90.5095 22.7879C89.2238 23.045 88.0602 23.1736 87.0188 23.1736C85.9902 23.1736 85.1545 23.0257 84.5117 22.73C83.8817 22.4214 83.3931 21.9521 83.046 21.3221C82.6988 20.6921 82.4609 19.985 82.3324 19.2007C82.2038 18.4164 82.1395 17.51 82.1395 16.4814C82.1395 15.4529 82.1717 14.6107 82.236 13.955C82.3131 13.2993 82.4481 12.6629 82.641 12.0457C82.8467 11.4286 83.1231 10.9336 83.4702 10.5607C84.2417 9.73786 85.3988 9.32643 86.9417 9.32643C88.0731 9.32643 89.2624 9.44857 90.5095 9.69286L90.4517 10.3679C89.2174 10.1107 88.1438 9.98215 87.231 9.98215C86.331 9.98215 85.6302 10.085 85.1288 10.2907C84.6274 10.4964 84.2288 10.7664 83.9331 11.1007C83.6502 11.4221 83.4252 11.8721 83.2581 12.4507C83.1038 13.0164 83.001 13.5886 82.9495 14.1671C82.8981 14.7457 82.8724 15.4593 82.8724 16.3079C82.8724 17.1564 82.8981 17.87 82.9495 18.4486C83.001 19.0271 83.1102 19.5929 83.2774 20.1457C83.4445 20.6986 83.676 21.1357 83.9717 21.4571C84.6274 22.1643 85.6174 22.5179 86.9417 22.5179C87.9445 22.5179 89.1145 22.3893 90.4517 22.1321L90.5095 22.7879Z"/></svg>