<svg width="16" height="10" viewBox="0 0 16 10" fill="none" xmlns="http://www.w3.org/2000/svg">
<path d="M14.5998 8.00078C14.9312 8.00078 15.1998 8.26941 15.1998 8.60078C15.1998 8.93215 14.9312 9.20078 14.5998 9.20078H1.3998C1.06843 9.20078 0.799805 8.93215 0.799805 8.60078C0.799805 8.26941 1.06843 8.00078 1.3998 8.00078H14.5998ZM14.5998 4.40078C14.9312 4.40078 15.1998 4.66941 15.1998 5.00078C15.1998 5.33215 14.9312 5.60078 14.5998 5.60078H1.3998C1.06843 5.60078 0.799805 5.33215 0.799805 5.00078C0.799805 4.66941 1.06843 4.40078 1.3998 4.40078H14.5998ZM14.5998 0.800781C14.9312 0.800781 15.1998 1.06941 15.1998 1.40078C15.1998 1.73215 14.9312 2.00078 14.5998 2.00078H1.3998C1.06843 2.00078 0.799805 1.73215 0.799805 1.40078C0.799805 1.06941 1.06843 0.800781 1.3998 0.800781H14.5998Z" fill="#2D6876"/>
</svg>
