<svg width="16" height="16" viewBox="0 0 16 16" fill="none" xmlns="http://www.w3.org/2000/svg">
<path fill-rule="evenodd" clip-rule="evenodd" d="M12.1998 6.80078C13.8567 6.80078 15.1998 5.45763 15.1998 3.80078C15.1998 2.14393 13.8567 0.800781 12.1998 0.800781C10.543 0.800781 9.19981 2.14393 9.19981 3.80078C9.19981 4.02476 9.22435 4.24301 9.2709 4.45298L6.21314 6.21838C5.66668 5.47971 4.78917 5.00078 3.7998 5.00078C2.14295 5.00078 0.799805 6.34393 0.799805 8.00078C0.799805 9.65763 2.14295 11.0008 3.7998 11.0008C4.81034 11.0008 5.70418 10.5011 6.24776 9.73542L9.28479 11.4888C9.22925 11.7171 9.19981 11.9555 9.19981 12.2008C9.19981 13.8576 10.543 15.2008 12.1998 15.2008C13.8567 15.2008 15.1998 13.8576 15.1998 12.2008C15.1998 10.5439 13.8567 9.20078 12.1998 9.20078C11.2184 9.20078 10.3471 9.67201 9.79977 10.4005L6.73364 8.63031C6.77699 8.42731 6.7998 8.21671 6.7998 8.00078C6.7998 7.7635 6.77226 7.53266 6.72019 7.31127L9.76477 5.55348C10.3095 6.30899 11.1972 6.80078 12.1998 6.80078ZM12.1998 5.60078C13.1939 5.60078 13.9998 4.79489 13.9998 3.80078C13.9998 2.80667 13.1939 2.00078 12.1998 2.00078C11.2057 2.00078 10.3998 2.80667 10.3998 3.80078C10.3998 4.79489 11.2057 5.60078 12.1998 5.60078ZM12.1998 14.0008C13.1939 14.0008 13.9998 13.1949 13.9998 12.2008C13.9998 11.2067 13.1939 10.4008 12.1998 10.4008C11.2057 10.4008 10.3998 11.2067 10.3998 12.2008C10.3998 13.1949 11.2057 14.0008 12.1998 14.0008ZM5.5998 8.00078C5.5998 8.99489 4.79392 9.80078 3.7998 9.80078C2.80569 9.80078 1.9998 8.99489 1.9998 8.00078C1.9998 7.00667 2.80569 6.20078 3.7998 6.20078C4.79392 6.20078 5.5998 7.00667 5.5998 8.00078Z" fill="#2D6876"/>
</svg>
