<svg width="16" height="11" viewBox="0 0 16 11" fill="none" xmlns="http://www.w3.org/2000/svg">
<path fill-rule="evenodd" clip-rule="evenodd" d="M5.83973 5.69961C7.22933 5.69961 8.35973 4.55575 8.35973 3.14961C8.35973 1.74347 7.22933 0.599609 5.83973 0.599609C4.45013 0.599609 3.31973 1.74347 3.31973 3.14961C3.31973 4.55575 4.45013 5.69961 5.83973 5.69961ZM0.799805 9.52461C0.799805 7.82704 4.155 6.97461 5.8398 6.97461C7.5246 6.97461 10.8798 7.82704 10.8798 9.52461V10.7996H0.799805V9.52461ZM5.83958 8.4316C4.55077 8.4316 3.08917 8.91974 2.48437 9.34231H9.19478C8.58998 8.91974 7.12838 8.4316 5.83958 8.4316ZM6.92006 3.14945C6.92006 2.54474 6.43766 2.0566 5.84006 2.0566C5.24246 2.0566 4.76006 2.54474 4.76006 3.14945C4.76006 3.75417 5.24246 4.24231 5.84006 4.24231C6.43766 4.24231 6.92006 3.75417 6.92006 3.14945ZM10.9089 7.01844C11.7441 7.63044 12.3201 8.44644 12.3201 9.52473V10.7997H15.2001V9.52473C15.2001 8.05301 12.6801 7.21515 10.9089 7.01844ZM12.6799 3.14961C12.6799 4.55575 11.5495 5.69961 10.1599 5.69961C9.77108 5.69961 9.41108 5.6049 9.07988 5.44461C9.53348 4.79618 9.79988 4.00204 9.79988 3.14961C9.79988 2.29718 9.53348 1.50304 9.07988 0.854609C9.41108 0.694324 9.77108 0.599609 10.1599 0.599609C11.5495 0.599609 12.6799 1.74347 12.6799 3.14961Z" fill="#2D6876"/>
</svg>
