<svg width="16" height="16" viewBox="0 0 16 16" fill="none" xmlns="http://www.w3.org/2000/svg">
<path fill-rule="evenodd" clip-rule="evenodd" d="M7.9998 0.800781C6.0108 0.800781 4.3998 2.41178 4.3998 4.40078C4.3998 6.38978 6.0108 8.00078 7.9998 8.00078C9.9888 8.00078 11.5998 6.38978 11.5998 4.40078C11.5998 2.41178 9.9888 0.800781 7.9998 0.800781ZM9.7998 4.40078C9.7998 3.41078 8.9898 2.60078 7.9998 2.60078C7.0098 2.60078 6.19981 3.41078 6.19981 4.40078C6.19981 5.39078 7.0098 6.20078 7.9998 6.20078C8.9898 6.20078 9.7998 5.39078 9.7998 4.40078ZM13.3998 13.4008C13.2198 12.7618 10.4298 11.6008 7.99981 11.6008C5.5788 11.6008 2.8068 12.7528 2.5998 13.4008H13.3998ZM0.799805 13.4008C0.799805 11.0068 5.5968 9.80078 7.9998 9.80078C10.4028 9.80078 15.1998 11.0068 15.1998 13.4008V15.2008H0.799805V13.4008Z" fill="#2D6876"/>
</svg>
