<svg xmlns="http://www.w3.org/2000/svg" width="40" height="40" fill="none" viewBox="0 0 40 40"><path fill="#212121" fill-rule="evenodd" d="M24.1154 8H14.8846C13.2923 8 12 9.22182 12 10.7273V29.2727C12 30.7782 13.2923 32 14.8846 32H24.1154C25.7077 32 27 30.7782 27 29.2727V10.7273C27 9.22182 25.7077 8 24.1154 8ZM19.4995 30.9094C18.5418 30.9094 17.7688 30.1785 17.7688 29.2731C17.7688 28.3676 18.5418 27.6367 19.4995 27.6367C20.4572 27.6367 21.2303 28.3676 21.2303 29.2731C21.2303 30.1785 20.4572 30.9094 19.4995 30.9094ZM14.3075 26.5452H24.6921V11.2725H14.3075V26.5452Z" clip-rule="evenodd"/></svg>