<svg width="10" height="16" viewBox="0 0 10 16" fill="none" xmlns="http://www.w3.org/2000/svg">
<path fill-rule="evenodd" clip-rule="evenodd" d="M7.96943 0.800781H2.43096C1.47558 0.800781 0.700195 1.53387 0.700195 2.43714V13.5644C0.700195 14.4677 1.47558 15.2008 2.43096 15.2008H7.96943C8.92481 15.2008 9.7002 14.4677 9.7002 13.5644V2.43714C9.7002 1.53387 8.92481 0.800781 7.96943 0.800781ZM5.2 14.5465C4.62538 14.5465 4.16153 14.1079 4.16153 13.5646C4.16153 13.0214 4.62538 12.5828 5.2 12.5828C5.77461 12.5828 6.23846 13.0214 6.23846 13.5646C6.23846 14.1079 5.77461 14.5465 5.2 14.5465ZM2.08465 11.9279H8.31542V2.76426H2.08465V11.9279Z" fill="#2D6876"/>
</svg>
