<svg width="16" height="16" viewBox="0 0 16 16" fill="none" xmlns="http://www.w3.org/2000/svg">
<path fill-rule="evenodd" clip-rule="evenodd" d="M13.5529 8.00078C13.5529 8.24558 13.5307 8.47598 13.5011 8.70638L15.0629 9.89438C15.2036 10.0024 15.2406 10.1968 15.1518 10.3552L13.6714 12.8464C13.6047 12.9616 13.4789 13.0264 13.3531 13.0264C13.3087 13.0264 13.2642 13.0192 13.2198 13.0048L11.3767 12.2848C10.9918 12.5656 10.5773 12.8104 10.1258 12.9904L9.84453 14.8984C9.82233 15.0712 9.66689 15.2008 9.48184 15.2008H6.52104C6.33599 15.2008 6.18055 15.0712 6.15835 14.8984L5.87707 12.9904C5.42555 12.8104 5.01104 12.5728 4.62614 12.2848L2.78304 13.0048C2.74603 13.0192 2.70162 13.0264 2.65721 13.0264C2.52397 13.0264 2.39814 12.9616 2.33152 12.8464L0.851124 10.3552C0.7623 10.1968 0.79931 10.0024 0.939948 9.89438L2.50177 8.70638C2.47216 8.47598 2.44995 8.23838 2.44995 8.00078C2.44995 7.76318 2.47216 7.52558 2.50177 7.29518L0.939948 6.10718C0.79931 5.99918 0.754898 5.80478 0.851124 5.64638L2.33152 3.15518C2.39814 3.03998 2.52397 2.97518 2.64981 2.97518C2.69422 2.97518 2.73863 2.98238 2.78304 2.99678L4.62614 3.71678C5.01104 3.43598 5.42555 3.19118 5.87707 3.01118L6.15835 1.10318C6.18055 0.930381 6.33599 0.800781 6.52104 0.800781H9.48184C9.66689 0.800781 9.82233 0.930381 9.84453 1.10318L10.1258 3.01118C10.5773 3.19118 10.9918 3.42878 11.3767 3.71678L13.2198 2.99678C13.2568 2.98238 13.3013 2.97518 13.3457 2.97518C13.4789 2.97518 13.6047 3.03998 13.6714 3.15518L15.1518 5.64638C15.2406 5.80478 15.2036 5.99918 15.0629 6.10718L13.5011 7.29518C13.5307 7.52558 13.5529 7.75598 13.5529 8.00078ZM12.0724 8.00053C12.0724 7.84933 12.065 7.69813 12.0353 7.47493L11.9317 6.66133L12.5905 6.15733L13.3825 5.54533L12.8644 4.67413L11.9243 5.04133L11.1397 5.35093L10.4661 4.84693C10.17 4.63093 9.87397 4.46533 9.55568 4.33573L8.77107 4.02613L8.65264 3.21253L8.512 2.24053H7.48313L7.33509 3.21253L7.21666 4.02613L6.43204 4.33573C6.12856 4.45813 5.82508 4.63093 5.5068 4.86133L4.84062 5.35093L4.07081 5.04853L3.13076 4.68133L2.61262 5.55253L3.41204 6.15733L4.07081 6.66133L3.96719 7.47493C3.94498 7.69093 3.93018 7.85653 3.93018 8.00053C3.93018 8.14453 3.94498 8.31013 3.96719 8.53333L4.07081 9.34693L3.41204 9.85093L2.61262 10.4557L3.13076 11.3269L4.07081 10.9597L4.85542 10.6501L5.529 11.1541C5.82508 11.3701 6.12116 11.5357 6.43945 11.6653L7.22406 11.9749L7.34249 12.7885L7.48313 13.7605H8.5194L8.66744 12.7885L8.78588 11.9749L9.57049 11.6653C9.87397 11.5429 10.1774 11.3701 10.4957 11.1397L11.1619 10.6501L11.9317 10.9525L12.8718 11.3197L13.3899 10.4485L12.5905 9.84373L11.9317 9.33973L12.0353 8.52613C12.0576 8.31013 12.0724 8.15173 12.0724 8.00053ZM8.00162 5.1209C6.36578 5.1209 5.04083 6.4097 5.04083 8.0009C5.04083 9.5921 6.36578 10.8809 8.00162 10.8809C9.63746 10.8809 10.9624 9.5921 10.9624 8.0009C10.9624 6.4097 9.63746 5.1209 8.00162 5.1209ZM6.52134 8.00104C6.52134 8.79304 7.18752 9.44104 8.00173 9.44104C8.81595 9.44104 9.48213 8.79304 9.48213 8.00104C9.48213 7.20903 8.81595 6.56103 8.00173 6.56103C7.18752 6.56103 6.52134 7.20903 6.52134 8.00104Z" fill="#2D6876"/>
</svg>
