<svg xmlns="http://www.w3.org/2000/svg" width="40" height="40" fill="none" viewBox="0 0 40 40"><path fill="#fff" fill-rule="evenodd" d="M19 14V12H21V14H19ZM17 14V11C17 10.4477 17.4477 10 18 10H22C22.5523 10 23 10.4477 23 11V14H25C26.1046 14 27 14.8954 27 16V26C27 27.1046 26.1046 28 25 28V29C25 29.5523 24.5523 30 24 30C23.4477 30 23 29.5523 23 29V28H17V29C17 29.5523 16.5523 30 16 30C15.4477 30 15 29.5523 15 29L15 28C13.8954 28 13 27.1046 13 26V16C13 14.8954 13.8954 14 15 14H17ZM16 26H24H25V16H22H18H15L15 26H16ZM19 18C19 17.4477 18.5523 17 18 17C17.4477 17 17 17.4477 17 18V24C17 24.5523 17.4477 25 18 25C18.5523 25 19 24.5523 19 24V18ZM22 17C22.5523 17 23 17.4477 23 18V24C23 24.5523 22.5523 25 22 25C21.4477 25 21 24.5523 21 24V18C21 17.4477 21.4477 17 22 17Z" clip-rule="evenodd"/></svg>