<svg width="44" height="44" viewBox="0 0 44 44" fill="none" xmlns="http://www.w3.org/2000/svg">
<path d="M25.3078 0.400391C27.6321 0.400391 29.6957 1.88771 30.4307 4.09276L31.5993 7.60039H41.7999C42.794 7.60039 43.5999 8.40628 43.5999 9.40039C43.5999 10.3945 42.794 11.2004 41.7999 11.2004H39.6399L36.8862 38.7377C36.6101 41.4982 34.2872 43.6004 31.513 43.6004H12.4868C9.71258 43.6004 7.38968 41.4982 7.11363 38.7377L4.3599 11.2004H2.1999C1.20579 11.2004 0.399902 10.3945 0.399902 9.40039C0.399902 8.40628 1.20579 7.60039 2.1999 7.60039H12.3987L13.5691 4.09276C14.3041 1.88771 16.3677 0.400391 18.692 0.400391H25.3078ZM36.0201 11.2004H7.9779L10.6958 38.3795C10.7807 39.2289 11.447 39.8913 12.2763 39.9882L12.4868 40.0004H31.513C32.3666 40.0004 33.092 39.4033 33.2709 38.5877L33.304 38.3795L36.0201 11.2004ZM21.9999 14.8004C22.994 14.8004 23.7999 15.6063 23.7999 16.6004V34.6004C23.7999 35.5945 22.994 36.4004 21.9999 36.4004C21.0058 36.4004 20.1999 35.5945 20.1999 34.6004V16.6004C20.1999 15.6063 21.0058 14.8004 21.9999 14.8004ZM29.1999 14.8004C30.194 14.8004 30.9999 15.6063 30.9999 16.6004V34.6004C30.9999 35.5945 30.194 36.4004 29.1999 36.4004C28.2058 36.4004 27.3999 35.5945 27.3999 34.6004V16.6004C27.3999 15.6063 28.2058 14.8004 29.1999 14.8004ZM14.7999 14.8004C15.794 14.8004 16.5999 15.6063 16.5999 16.6004V34.6004C16.5999 35.5945 15.794 36.4004 14.7999 36.4004C13.8058 36.4004 12.9999 35.5945 12.9999 34.6004V16.6004C12.9999 15.6063 13.8058 14.8004 14.7999 14.8004ZM25.3078 4.00039H18.692C17.9877 4.00039 17.3552 4.41012 17.0619 5.03685L16.9844 5.23118L16.1931 7.60039H27.8049L27.0154 5.23118C26.7927 4.56298 26.204 4.09251 25.5167 4.01249L25.3078 4.00039Z" fill="#fff"/>
</svg>
