<svg width="16" height="12" viewBox="0 0 16 12" fill="none" xmlns="http://www.w3.org/2000/svg">
<path fill-rule="evenodd" clip-rule="evenodd" d="M0.799805 2.39961C0.799805 1.4055 1.60569 0.599609 2.5998 0.599609H13.3998C14.3939 0.599609 15.1998 1.4055 15.1998 2.39961V9.59961C15.1998 9.81013 15.1637 10.0122 15.0973 10.2L15.1403 10.243L15.0391 10.3442C14.7558 10.9667 14.1284 11.3996 13.3998 11.3996H2.5998C1.60569 11.3996 0.799805 10.5937 0.799805 9.59961V2.39961ZM13.9998 9.10253V2.60672L10.581 5.68368L13.9998 9.10253ZM13.1028 1.79961H2.89675L7.59838 6.03108C7.82657 6.23645 8.17296 6.23645 8.40114 6.03108L13.1028 1.79961ZM1.9998 2.6068V8.9995L5.36439 5.63492L1.9998 2.6068ZM2.50431 10.1921L6.25757 6.43879L6.79563 6.92304C7.48017 7.53913 8.51935 7.53913 9.2039 6.92304L9.68777 6.48755L13.3998 10.1996C13.3998 10.1996 13.3998 10.1996 13.3998 10.1996H2.5998C2.5673 10.1996 2.53541 10.197 2.50431 10.1921Z" fill="#2D6876"/>
</svg>
