<svg xmlns="http://www.w3.org/2000/svg" width="40" height="40" fill="none" viewBox="0 0 40 40"><path fill="#fff" fill-rule="evenodd" d="M32 16.2632C32 14.9195 30.932 13.8421 29.6 13.8421H24.8V11.4211C24.8 10.0774 23.732 9 22.4 9H17.6C16.268 9 15.2 10.0774 15.2 11.4211V13.8421H10.4C9.068 13.8421 8.012 14.9195 8.012 16.2632L8 29.5789C8 30.9226 9.068 32 10.4 32H29.6C30.932 32 32 30.9226 32 29.5789V16.2632ZM22.4001 13.842V11.421H17.6001V13.842H22.4001ZM10.3999 16.2634V29.5791H29.5999V16.2634H10.3999Z" clip-rule="evenodd"/></svg>